<svg width="220" height="198" xmlns="http://www.w3.org/2000/svg" xmlns:xlink="http://www.w3.org/1999/xlink" xml:space="preserve" overflow="hidden"><g transform="translate(-481 -284)"><g><g><g><path d="M163.246 212.507 123.355 212.544C126.316 210.026 129.546 207.814 132.995 205.956L165.513 205.935 163.245 212.505Z" fill="#529FA4" fill-rule="nonzero" fill-opacity="1" transform="matrix(1.00168 0 0 1 417.724 111.522)"/><path d="M162.566 225.511 112.174 225.511C113.684 223.088 115.375 220.79 117.229 218.635L162.635 218.635C162.635 218.635 162.568 225.511 162.568 225.511Z" fill="#EDA227" fill-rule="nonzero" fill-opacity="1" transform="matrix(1.00168 0 0 1 417.724 111.522)"/><path d="M163.207 235.154 107.419 235.243C107.985 233.732 109.028 231.222 109.85 229.769L163.207 229.769 163.207 235.154Z" fill="#CD5C16" fill-rule="nonzero" fill-opacity="1" transform="matrix(1.00168 0 0 1 417.724 111.522)"/><path d="M165.342 243.595 104.989 243.595C105.392 241.723 105.737 240.355 106.222 238.762L164.481 238.762C164.481 238.762 165.342 243.595 165.342 243.595Z" fill="#871721" fill-rule="nonzero" fill-opacity="1" transform="matrix(1.00168 0 0 1 417.724 111.522)"/><path d="M173.156 254.745 103.836 254.745C103.836 251.805 104.065 248.918 104.506 246.103L171.408 246.103C171.408 246.103 173.154 254.745 173.154 254.745Z" fill="#8ECFD6" fill-rule="nonzero" fill-opacity="1" transform="matrix(1.00168 0 0 1 417.724 111.522)"/><path d="M198.514 267.582 105.303 267.67C104.653 264.768 104.234 261.549 104.003 258.475L178.348 258.432 198.514 267.583Z" fill="#529FA4" fill-rule="nonzero" fill-opacity="1" transform="matrix(1.00168 0 0 1 417.724 111.522)"/><path d="M206.844 282.998C208.688 279.896 210.237 276.6 211.454 273.145L106.968 273.145C108.184 276.6 109.733 279.896 111.577 282.998L206.844 282.998Z" fill="#387172" fill-rule="nonzero" fill-opacity="1" transform="matrix(1.00168 0 0 1 417.724 111.522)"/><path d="M201.173 290.875C196.237 296.602 190.149 301.307 183.27 304.632L134.205 304.165C127.711 300.874 121.954 296.339 117.247 290.875 143.743 290.875 170.239 290.875 196.736 290.875 198.215 290.875 199.693 290.875 201.173 290.875Z" fill="#114444" fill-rule="nonzero" fill-opacity="1" transform="matrix(1.00168 0 0 1 417.724 111.522)"/><path d="M215.594 224.456C215.594 231.133 210.182 236.545 203.505 236.545 196.828 236.545 191.416 231.133 191.416 224.456 191.416 217.779 196.828 212.367 203.505 212.367 210.182 212.367 215.594 217.779 215.594 224.456Z" fill="#F5F7E9" fill-rule="nonzero" fill-opacity="1" transform="matrix(1.00168 0 0 1 417.724 111.522)"/><path d="M222.291 224.456C222.291 234.831 213.88 243.242 203.505 243.242 193.13 243.242 184.719 234.831 184.719 224.456 184.719 214.081 193.13 205.67 203.505 205.67 213.88 205.67 222.291 214.081 222.291 224.456Z" stroke="#F5F7E9" stroke-width="7.28263" stroke-linecap="butt" stroke-linejoin="miter" stroke-miterlimit="10" stroke-opacity="1" fill="none" fill-rule="nonzero" transform="matrix(1.00168 0 0 1 417.724 111.522)"/><path d="M233.202 224.456C233.202 240.857 219.906 254.153 203.505 254.153 187.104 254.153 173.808 240.857 173.808 224.456 173.808 208.055 187.104 194.759 203.505 194.759 219.906 194.759 233.202 208.055 233.202 224.456Z" stroke="#F5F7E9" stroke-width="6.21688" stroke-linecap="butt" stroke-linejoin="miter" stroke-miterlimit="10" stroke-opacity="1" fill="none" fill-rule="nonzero" transform="matrix(1.00168 0 0 1 417.724 111.522)"/><path d="M243.874 224.456C243.874 246.751 225.8 264.825 203.505 264.825 181.21 264.825 163.136 246.751 163.136 224.456 163.136 202.161 181.21 184.087 203.505 184.087 225.8 184.087 243.874 202.161 243.874 224.456Z" stroke="#F5F7E9" stroke-width="5.684" stroke-linecap="butt" stroke-linejoin="miter" stroke-miterlimit="10" stroke-opacity="1" fill="none" fill-rule="nonzero" transform="matrix(1.00168 0 0 1 417.724 111.522)"/><path d="M138.043 220.721C139.091 218.674 159.639 224.786 177.771 237.41 177.771 237.41 191.238 246.787 201.171 259.542 205.237 264.763 207.29 269.067 208.971 271.152 209.223 271.464 210.072 271.946 210.221 272.768 210.738 275.632 206.068 279.134 206.068 279.134 205.766 279.093 205.587 278.458 205.029 278.09 204.059 277.449 201.276 274.743 197.178 273.873 195.446 273.505 193.936 273.507 193.249 273.52 192.485 273.532 191.888 273.621 190.828 273.692 190.828 273.692 184.464 274.035 177.858 275.687L177.405 275.687C177.405 275.687 175.398 274.973 175.046 273.692 174.684 272.365 174.684 272.228 174.502 270.789 174.282 269.045 173.678 266.416 171.781 261.175 167.168 248.428 155.092 235.778 155.092 235.778 144.805 225.003 137.395 221.98 138.04 220.721Z" stroke="#F5F7E9" stroke-width="0.532875" stroke-linecap="butt" stroke-linejoin="miter" stroke-miterlimit="10" stroke-opacity="1" fill="#114444" fill-rule="nonzero" fill-opacity="1" transform="matrix(1.00168 0 0 1 417.724 111.522)"/><path d="M205.416 278.395C199.958 286.614 196.563 291.36 196.381 291.582 196.372 291.593 195.848 292.209 195.785 292.531 195.723 292.852 195.755 293.163 195.952 293.557 196.171 293.993 196.832 294.57 197.347 294.646 197.951 294.737 198.175 294.494 198.5 294.328 198.677 294.24 198.976 293.962 199.013 293.92 199.803 293.01 200.215 292.581 200.963 291.687 204.388 287.598 205.979 285.468 207.029 284.046 208.479 282.081 209.44 280.665 210.464 278.966 211.111 277.893 213.56 273.791 216.376 267.74 216.376 267.74 218.017 264.21 221.122 255.677 221.989 253.213 222.033 252.94 222.069 252.533 222.09 252.279 222.038 252.098 221.983 251.949 221.854 251.594 221.436 251.185 220.985 251.167 220.617 251.153 220.294 251.459 219.66 252.451 218.928 253.597 218.678 254.217 218.264 255.045 217.882 255.809 216.303 258.663 212.663 265.068 211.525 267.07 210.93 268.388 209.804 270.53 209.804 270.53 209.713 270.745 209.333 271.472" fill="#114444" fill-rule="nonzero" fill-opacity="1" transform="matrix(1.00168 0 0 1 417.724 111.522)"/><path d="M205.187 278.26C202.912 281.685 200.612 285.094 198.262 288.47 197.697 289.282 197.13 290.094 196.553 290.897 196.432 291.064 196.311 291.231 196.189 291.396 196.141 291.46 196.224 291.353 196.194 291.389 196.137 291.456 196.082 291.525 196.029 291.595 195.789 291.904 195.549 292.227 195.501 292.625 195.384 293.604 196.21 294.581 197.116 294.865 197.933 295.121 198.793 294.575 199.313 293.978 200.798 292.277 202.26 290.563 203.679 288.806 205.741 286.254 207.761 283.642 209.562 280.9 211.194 278.413 212.637 275.793 214.008 273.154 215.147 270.962 216.253 268.747 217.22 266.473 218.529 263.391 219.72 260.26 220.879 257.119 221.266 256.07 221.649 255.02 221.994 253.956 222.117 253.581 222.246 253.199 222.305 252.808 222.417 252.054 222.126 251.281 221.371 250.982 220.546 250.657 220.014 251.441 219.612 252.038 218.884 253.126 218.362 254.313 217.745 255.462 217.271 256.349 216.779 257.226 216.289 258.103 215.367 259.752 214.438 261.397 213.507 263.04 212.894 264.121 212.267 265.198 211.683 266.296 211.168 267.264 210.679 268.246 210.18 269.223 209.82 269.926 209.468 270.635 209.104 271.335 208.946 271.639 209.406 271.909 209.564 271.603 210.425 269.953 211.235 268.273 212.109 266.628 213.17 264.633 214.324 262.684 215.433 260.716 216.461 258.89 217.536 257.077 218.481 255.205 218.871 254.428 219.234 253.647 219.689 252.904 219.953 252.473 220.22 252.009 220.58 251.647 220.658 251.569 220.744 251.49 220.847 251.448 220.857 251.444 220.921 251.43 220.93 251.43 221.031 251.425 221.131 251.451 221.223 251.494 221.637 251.686 221.834 252.119 221.8 252.556 221.797 252.606 221.792 252.656 221.784 252.705 221.797 252.611 221.784 252.7 221.781 252.723 221.774 252.759 221.768 252.794 221.761 252.83 221.66 253.331 221.481 253.819 221.317 254.301 220.593 256.444 219.784 258.564 218.973 260.676 218.411 262.136 217.839 263.592 217.244 265.038 216.561 266.701 215.811 268.344 215.012 269.978 213.591 272.882 212.075 275.747 210.416 278.523 208.818 281.198 206.987 283.724 205.079 286.186 203.926 287.673 202.74 289.133 201.537 290.58 200.819 291.444 200.089 292.295 199.345 293.135 199.057 293.46 198.786 293.847 198.404 294.073 198.073 294.268 197.766 294.456 197.365 294.376 196.558 294.216 195.686 293.135 196.159 292.334 196.315 292.069 196.517 291.84 196.698 291.595 197.093 291.062 197.473 290.517 197.855 289.973 199.819 287.181 201.739 284.356 203.644 281.523 204.313 280.525 204.981 279.525 205.647 278.523 205.837 278.237 205.375 277.969 205.187 278.255L205.187 278.255Z" fill="#F5F7E9" fill-rule="nonzero" fill-opacity="1" transform="matrix(1.00168 0 0 1 417.724 111.522)"/><text fill="#529FA4" fill-opacity="1" font-family="Ravie,Ravie_MSFontService,sans-serif" font-style="normal" font-variant="normal" font-weight="400" font-stretch="semi-expanded" font-size="140" text-anchor="start" direction="ltr" writing-mode="lr-tb" unicode-bidi="normal" text-decoration="none" transform="matrix(0.177923 0 0 0.177625 513.547 442)">Springtij</text><text fill="#F5F7E9" fill-opacity="1" font-family="Freestyle Script,Freestyle Script_MSFontService,sans-serif" font-style="normal" font-variant="normal" font-weight="400" font-stretch="normal" font-size="72.58" text-anchor="start" direction="ltr" writing-mode="lr-tb" unicode-bidi="normal" text-decoration="none" transform="matrix(0.177923 0 0 0.177625 623.69 456)">Lustrum 9</text></g></g></g></g></svg>