<?xml version="1.0" encoding="UTF-8"?>
<svg xmlns="http://www.w3.org/2000/svg" viewBox="0 0 1802.94 2461.76">
  <g id="Laag_3" data-name="Laag 3">
    <path d="M919.05,1196.38l-224.58.21c16.67-14.18,34.85-26.63,54.27-37.09l183.07-.12-12.77,36.99Z" fill="#529fa4" stroke-width="0"/>
    <path d="M931.82,1159.39l111.74-.07c19.38,10.4,37.53,22.79,54.18,36.9l-178.69.17" fill="none" stroke-width="0"/>
    <path d="M915.22,1269.59h-283.7c8.5-13.64,18.02-26.58,28.46-38.71h255.63s-.38,38.71-.38,38.71Z" fill="#eda227" stroke-width="0"/>
    <path d="M915.6,1230.88h217.08c10.44,12.13,19.96,25.06,28.46,38.7h-245.91" fill="none" stroke-width="0"/>
    <path d="M918.83,1323.88l-314.08.5c3.19-8.51,9.06-22.64,13.69-30.82h300.39v30.32Z" fill="#cd5c16" stroke-width="0"/>
    <path d="M918.43,1290.96h254.87c4.34,8.37,8.31,16.97,11.89,25.77h-264.74" fill="none" stroke-width="0"/>
    <path d="M930.85,1371.4h-339.78c2.27-10.54,4.21-18.24,6.94-27.21h327.99s4.85,27.21,4.85,27.21Z" fill="#871721" stroke-width="0"/>
    <path d="M927.48,1337.55h265.33c2.9,8.9,5.41,17.98,7.51,27.21h-267.99" fill="none" stroke-width="0"/>
    <path d="M974.84,1434.17h-390.26c0-16.55,1.29-32.8,3.77-48.65h376.65s9.83,48.65,9.83,48.65Z" fill="#8ecfd6" stroke-width="0"/>
    <path d="M965.01,1385.52h239.29c2.48,15.85,3.77,32.1,3.77,48.65h-233.23" fill="none" stroke-width="0"/>
    <path d="M1117.6,1506.44l-524.76.5c-3.66-16.34-6.02-34.46-7.32-51.77l418.55-.24,113.53,51.52Z" fill="#529fa4" stroke-width="0"/>
    <path d="M1003.65,1452.06l203.93-.12c-.99,17.64-3.45,34.9-7.26,51.64h-83.14" fill="none" stroke-width="0"/>
    <path d="M1164.5,1593.23c10.38-17.46,19.1-36.02,25.95-55.47h-588.24c6.85,19.45,15.57,38.01,25.95,55.47h536.34Z" fill="#387172" stroke-width="0"/>
    <path d="M1132.57,1637.58c-27.79,32.24-62.06,58.73-100.79,77.45l-276.23-2.63c-36.56-18.53-68.97-44.06-95.47-74.82,149.17,0,298.34,0,447.51,0,8.33,0,16.65,0,24.98,0Z" fill="#144" stroke-width="0"/>
  </g>
  <g id="Laag_4" data-name="Laag 4">
    <circle cx="1145.7" cy="1263.65" r="68.06" fill="#f5f7e9" stroke-width="0"/>
    <circle cx="1145.7" cy="1263.65" r="105.76" fill="none" stroke="#f5f7e9" stroke-miterlimit="10" stroke-width="41"/>
    <circle cx="1145.7" cy="1263.65" r="167.19" fill="none" stroke="#f5f7e9" stroke-miterlimit="10" stroke-width="35"/>
    <circle cx="1145.7" cy="1263.65" r="227.27" fill="none" stroke="#f5f7e9" stroke-miterlimit="10" stroke-width="32"/>
  </g>
  <g id="Laag_6" data-name="Laag 6">
    <path d="M777.16,1242.62c5.9-11.52,121.58,22.89,223.66,93.96,0,0,75.82,52.79,131.74,124.6,22.89,29.39,34.45,53.62,43.91,65.36,1.42,1.76,6.2,4.47,7.04,9.1,2.91,16.12-23.38,35.84-23.38,35.84-1.7-.23-2.71-3.81-5.85-5.88-5.46-3.61-21.13-18.84-44.2-23.74-9.75-2.07-18.25-2.06-22.12-1.99-4.3.07-7.66.57-13.63.97,0,0-35.83,1.93-73.02,11.23h-2.55s-11.3-4.02-13.28-11.23c-2.04-7.47-2.04-8.24-3.06-16.34-1.24-9.82-4.64-24.62-15.32-54.13-25.97-71.76-93.96-142.98-93.96-142.98-57.91-60.66-99.63-77.68-96-84.77Z" fill="#144" stroke="#f5f7e9" stroke-miterlimit="10" stroke-width="3"/>
  </g>
  <g id="Laag_13" data-name="Laag 13">
    <g>
      <path d="M1156.46,1567.32c-30.73,46.27-49.84,72.99-50.87,74.24-.05.06-3,3.53-3.35,5.34s-.17,3.56.94,5.78c1.23,2.45,4.95,5.7,7.85,6.13,3.4.51,4.66-.86,6.49-1.79,1-.5,2.68-2.06,2.89-2.3,4.45-5.12,6.77-7.54,10.98-12.57,19.28-23.02,28.24-35.01,34.15-43.02,8.16-11.06,13.57-19.03,19.34-28.6,3.64-6.04,17.43-29.13,33.28-63.2,0,0,9.24-19.87,26.72-67.91,4.88-13.87,5.13-15.41,5.33-17.7.12-1.43-.17-2.45-.48-3.29-.73-2-3.08-4.3-5.62-4.4-2.07-.08-3.89,1.64-7.46,7.23-4.12,6.45-5.53,9.94-7.86,14.6-2.15,4.3-11.04,20.37-31.53,56.43-6.41,11.27-9.76,18.69-16.1,30.75,0,0-.51,1.21-2.65,5.3" fill="#144" stroke-width="0"/>
      <path d="M1155.17,1566.56c-12.81,19.28-25.76,38.47-38.99,57.48-3.18,4.57-6.37,9.14-9.62,13.66-.68.94-1.36,1.88-2.05,2.81-.27.36.2-.24.03-.04-.32.38-.63.77-.93,1.16-1.35,1.74-2.7,3.56-2.97,5.8-.66,5.51,3.99,11.01,9.09,12.61,4.6,1.44,9.44-1.63,12.37-4.99,8.36-9.58,16.59-19.23,24.58-29.12,11.61-14.37,22.98-29.07,33.12-44.51,9.19-14,17.31-28.75,25.03-43.61,6.41-12.34,12.64-24.81,18.08-37.61,7.37-17.35,14.08-34.98,20.6-52.66,2.18-5.91,4.34-11.82,6.28-17.81.69-2.11,1.42-4.26,1.75-6.46.63-4.25-1.01-8.6-5.26-10.28-4.64-1.83-7.64,2.58-9.9,5.94-4.1,6.13-7.04,12.81-10.51,19.28-2.67,4.99-5.44,9.93-8.2,14.87-5.19,9.28-10.42,18.54-15.66,27.79-3.45,6.09-6.98,12.15-10.27,18.33-2.9,5.45-5.65,10.98-8.46,16.48-2.03,3.96-4.01,7.95-6.06,11.89-.89,1.71,1.7,3.23,2.59,1.51,4.85-9.29,9.41-18.75,14.33-28.01,5.97-11.23,12.47-22.2,18.71-33.28,5.79-10.28,11.84-20.49,17.16-31.03,2.2-4.37,4.24-8.77,6.8-12.95,1.49-2.43,2.99-5.04,5.02-7.08.44-.44.92-.88,1.5-1.12.06-.02.42-.1.47-.1.57-.03,1.13.12,1.65.36,2.33,1.08,3.44,3.52,3.25,5.98-.02.28-.05.56-.09.84.07-.53,0-.03-.02.1-.04.2-.07.4-.11.6-.57,2.82-1.58,5.57-2.5,8.28-4.08,12.07-8.63,24-13.2,35.89-3.16,8.22-6.38,16.42-9.73,24.56-3.85,9.36-8.07,18.61-12.57,27.81-8,16.35-16.53,32.48-25.87,48.11-9,15.06-19.31,29.28-30.05,43.14-6.49,8.37-13.17,16.59-19.94,24.74-4.04,4.86-8.15,9.65-12.34,14.38-1.62,1.83-3.15,4.01-5.3,5.28-1.86,1.1-3.59,2.16-5.85,1.71-4.54-.9-9.45-6.99-6.79-11.5.88-1.49,2.02-2.78,3.04-4.16,2.22-3,4.36-6.07,6.51-9.13,11.06-15.72,21.87-31.62,32.59-47.57,3.77-5.62,7.53-11.25,11.28-16.89,1.07-1.61-1.53-3.12-2.59-1.51h0Z" fill="#f5f7e9" stroke-width="0"/>
    </g>
  </g>
  <g id="Laag_7" data-name="Laag 7">
    <text transform="translate(538.56 1861.17)" fill="#529fa4" font-family="Ravie, Ravie" font-size="140"><tspan x="0" y="0">Springtij</tspan></text>
  </g>
  <g id="Laag_8" data-name="Laag 8">
    <text transform="translate(1157.61 1936.64)" fill="#f5f7e9" font-family="FreestyleScript-Regular, &apos;Freestyle Script&apos;" font-size="72.58"><tspan x="0" y="0">Lustrum 9</tspan></text>
  </g>
</svg>