<?xml version="1.0" encoding="UTF-8"?>
<svg xmlns="http://www.w3.org/2000/svg" version="1.1" xmlns:xlink="http://www.w3.org/1999/xlink" viewBox="0 0 1683.8 2381.1">
  <defs>
    <style>
      .cls-1, .cls-2, .cls-3, .cls-4, .cls-5, .cls-6, .cls-7, .cls-8, .cls-9, .cls-10 {
        stroke-width: 0px;
      }

      .cls-1, .cls-11 {
        fill: #f5f7e9;
      }

      .cls-12, .cls-13, .cls-5, .cls-14, .cls-15, .cls-16, .cls-17 {
        fill: none;
      }

      .cls-12, .cls-13, .cls-14, .cls-15, .cls-16, .cls-17, .cls-18 {
        stroke-miterlimit: 10;
      }

      .cls-12, .cls-14, .cls-15, .cls-16, .cls-17, .cls-18 {
        stroke: #f5f7e9;
      }

      .cls-12, .cls-15 {
        stroke-width: 2px;
      }

      .cls-12, .cls-19 {
        display: none;
      }

      .cls-2 {
        fill: #611217;
      }

      .cls-3 {
        fill: #871721;
      }

      .cls-20 {
        font-family: Ravie, Ravie;
        font-size: 140px;
      }

      .cls-20, .cls-8 {
        fill: #529fa4;
      }

      .cls-4 {
        fill: #eda227;
      }

      .cls-13 {
        stroke: #1d1d1b;
      }

      .cls-13, .cls-18 {
        stroke-width: 3px;
      }

      .cls-14 {
        stroke-width: 41px;
      }

      .cls-6 {
        fill: #cd5c16;
      }

      .cls-7 {
        fill: #387172;
      }

      .cls-16 {
        stroke-width: 35px;
      }

      .cls-9 {
        fill: #8ecfd6;
      }

      .cls-10, .cls-18 {
        fill: #144;
      }

      .cls-17 {
        stroke-width: 32px;
      }

      .cls-11 {
        font-family: FreestyleScript-Regular, 'Freestyle Script';
        font-size: 72.6px;
      }
    </style>
  </defs>
  <g id="Laag_2" data-name="Laag 2">
    <rect class="cls-2" x="-53.4" y="-50.8" width="1802.9" height="2461.8"/>
  </g>
  <g id="Laag_9" data-name="Laag 9" class="cls-19">
    <circle class="cls-13" cx="842.7" cy="1384.2" r="311.5"/>
  </g>
  <g id="Laag_1" data-name="Laag 1" class="cls-19">
    <image width="257" height="186" transform="translate(1206.8) scale(1.9 2.2)" xlink:href="Logo lustrum zonder tekst-1.png"/>
  </g>
  <g id="Laag_3" data-name="Laag 3">
    <path class="cls-8" d="M865.6,1145.6l-224.6.2c16.7-14.2,34.9-26.6,54.3-37.1h183.1c0-.1-12.8,36.9-12.8,36.9Z"/>
    <path class="cls-5" d="M878.4,1108.6h111.7c19.4,10.3,37.5,22.7,54.2,36.8l-178.7.2"/>
    <path class="cls-4" d="M861.8,1218.8h-283.7c8.5-13.6,18-26.6,28.5-38.7h255.6s-.4,38.7-.4,38.7Z"/>
    <path class="cls-5" d="M862.2,1180.1h217.1c10.4,12.1,20,25.1,28.5,38.7h-245.9"/>
    <path class="cls-6" d="M865.4,1273.1l-314.1.5c3.2-8.5,9.1-22.6,13.7-30.8h300.4v30.3Z"/>
    <path class="cls-5" d="M865,1240.2h254.9c4.3,8.4,8.3,17,11.9,25.8h-264.7"/>
    <path class="cls-3" d="M877.4,1320.6h-339.8c2.3-10.5,4.2-18.2,6.9-27.2h328s4.9,27.2,4.9,27.2Z"/>
    <path class="cls-5" d="M874.1,1286.8h265.3c2.9,8.9,5.4,18,7.5,27.2h-268"/>
    <path class="cls-9" d="M921.4,1383.4h-390.3c0-16.6,1.3-32.8,3.8-48.7h376.7s9.8,48.7,9.8,48.7Z"/>
    <path class="cls-5" d="M911.6,1334.8h239.3c2.5,15.9,3.8,32.1,3.8,48.7h-233.2"/>
    <path class="cls-8" d="M1064.2,1455.7l-524.8.5c-3.7-16.3-6-34.5-7.3-51.8l418.5-.2,113.5,51.5Z"/>
    <path class="cls-5" d="M950.2,1401.3h203.9c-1,17.5-3.5,34.8-7.3,51.5h-83.1"/>
    <path class="cls-7" d="M1111.1,1542.5c10.4-17.5,19.1-36,26-55.5h-588.2c6.8,19.4,15.6,38,25.9,55.5h536.3Z"/>
    <path class="cls-10" d="M1079.2,1586.8c-27.8,32.2-62.1,58.7-100.8,77.4l-276.2-2.6c-36.6-18.5-69-44.1-95.5-74.8,149.2,0,298.3,0,447.5,0,8.3,0,16.7,0,25,0Z"/>
  </g>
  <g id="Laag_4" data-name="Laag 4">
    <circle class="cls-1" cx="1092.3" cy="1212.9" r="68.1"/>
    <circle class="cls-14" cx="1092.3" cy="1212.9" r="105.8"/>
    <circle class="cls-16" cx="1092.3" cy="1212.9" r="167.2"/>
    <circle class="cls-17" cx="1092.3" cy="1212.9" r="227.3"/>
  </g>
  <g id="Laag_12" data-name="Laag 12" class="cls-19">
    <path class="cls-10" d="M604.8,1587.3c-11.8-10.8-18.7-22.2-31.9-44.4-18.4-30.8-25.4-54.5-25.9-55.5,0,0-.1-.2-.1-.4,0-.5.4-1,.5-1.1,1.1-1.1,9.4-11.2,19.1-22.8,2.6-3.1,1.8-2.5,3.5-4.4,5.4-6.1,10.7-9,21.3-15.1,13.5-7.7,13-7.4,13.4-7.6,6.1-2.7,17.8-7.9,32.2-5.9,8.6,1.2,14.7,4.5,23.5,9.3,7.1,3.8,10.4,6.8,12.3,8.5,3.9,3.7,8.3,7.8,10,14.7.4,1.7,1.8,8.3-1.5,14.7-.6,1.2-3.3,6.4-7,6.4-1.3,0-2.1-.7-4.7-2.7-3.9-3-6.6-5-7.7-5.6-5.6-3.1-17.1,4.8-23.9,12.1-13.2,14.1-14,31.5-14.1,34.1-.5,15,5.6,26,8.2,30.6,14.3,24.9,40.8,31.4,45.3,32.5,7.8,1.9,14.5,2.1,23.9,2.4,7.6.3,21.4.2,33.5-.4,9.1-.5,10.9-1,14.8.2,2.9.9,6.7,2.7,8.4,1.1.8-.8.9-2,.9-2.2.1-3.1-3.5-5.5-4.4-6.2-3.8-2.9-5.3-8.2-8.4-19-3.6-12.7-3.4-33.5,4.6-54.1,2.9-7.5,9-22.5,24.1-35.4,1.7-1.5,9.8-8.2,22.4-13.5,7.1-3,30.7-11.7,59.2-4.3,7.5,2,24.4,7.4,36.3,20.9,3.5,3.9,6.5,8.5,7.7,14.4.2.9,2.2,10.9-3.3,18.5-1,1.3-2.4,3.3-4.5,3.4-2.3.1-3.5-2-7-4.2,0,0-2.7-1.7-7.3-2.9-9.1-2.4-18.4,3.6-20.5,5-8.1,5.2-11.7,12.6-12.7,15-6.8,15.5.8,30.7,2.1,33.3,6.4,12.8,17.4,18.5,24.6,22.2,13.9,7,26.4,7.9,41.4,8.5,44.5,1.7,79.1,0,79.1,0,19.6-1,39.9,5,58.7-.3.9-.3,4-1.2,5.6.3,4,3.7-3.8,19-6.9,23.3-24,33.9-152.6-44.3-273.4-4.3-1.1.4-1.1.4-2.3.8-50,16.4-124.9,20.6-169.1-19.7Z"/>
  </g>
  <g id="Laag_10" data-name="Laag 10" class="cls-19">
    <path class="cls-15" d="M1191.2,1355.5c-.8,1.7-9.9,20.9-15.4,32.5-13.9,29.1-20.8,43.6-24,49.5-10.7,19.9-24.8,43.3-25.4,44.2,0,0-.3.5-.4.5-.1,0-.8-1.4-.9-1.7"/>
    <path class="cls-15" d="M1067.3,1597"/>
    <path class="cls-15" d="M1101.7,1520c-15.5,21.7-31.1,43.3-46.6,64.9,0,0-.7.9-.7,1l-.2.2-6.4.6c-26,0-52.9,0-78.9,0"/>
  </g>
  <g id="Laag_6" data-name="Laag 6">
    <path class="cls-18" d="M723.8,1191.9c5.9-11.5,121.6,22.9,223.7,94,0,0,75.8,52.8,131.7,124.6,22.9,29.4,34.5,53.6,43.9,65.4,1.4,1.8,6.2,4.5,7,9.1,2.9,16.1-23.4,35.8-23.4,35.8-1.7-.2-2.7-3.8-5.8-5.9-5.5-3.6-21.1-18.8-44.2-23.7-9.8-2.1-18.3-2.1-22.1-2-4.3,0-7.7.6-13.6,1,0,0-35.8,1.9-73,11.2h-2.6s-11.3-4-13.3-11.2c-2-7.5-2-8.2-3.1-16.3-1.2-9.8-4.6-24.6-15.3-54.1-26-71.8-94-143-94-143-57.9-60.7-99.6-77.7-96-84.8Z"/>
    <path class="cls-12" d="M970,1586.8c-12.9,0-31.5.8-58.2,0-23.5-.7-52.9-9.2-63.3-31.6-5.9-12.7-6.1-32,5.1-42.9,10.3-10,29.3-11.9,33.7-6.5,1,1.2,2.4,4.1,5.1,4.4,1.8.2,3.4-.9,4.1-1.4,4.7-3.4,6.2-11.7,6.1-16.3-.4-15.2-19.4-26.6-23.8-29.3-23.7-14.3-67.3-20.2-99.7,5.1-45,35.1-33.9,103.5-23.1,112.3.8.7,5.9,4.5,5.1,6-.7,1.4-5.5.3-7.1,0-10.9-2.2-17.1,0-32.7,0-22.8,0-38.1-.1-52.1-5.7-20.4-8.2-44.8-31-43.6-58.6,1.1-26.6,25.7-50.6,38.1-47.7,6,1.5,8.4,9.1,13.3,8.2,5-1,8.6-10.3,8.2-17.4-1.1-17-26.1-31-43.2-34.4-31.2-6.2-67,16.7-93,55.7"/>
  </g>
  <g id="Laag_13" data-name="Laag 13">
    <g>
      <path class="cls-10" d="M1103.1,1516.6c-30.7,46.3-49.8,73-50.9,74.2s-3,3.5-3.4,5.3-.2,3.6.9,5.8c1.2,2.4,5,5.7,7.9,6.1,3.4.5,4.7-.9,6.5-1.8,1-.5,2.7-2.1,2.9-2.3,4.4-5.1,6.8-7.5,11-12.6,19.3-23,28.2-35,34.1-43,8.2-11.1,13.6-19,19.3-28.6,3.6-6,17.4-29.1,33.3-63.2,0,0,9.2-19.9,26.7-67.9,4.9-13.9,5.1-15.4,5.3-17.7s-.2-2.4-.5-3.3c-.7-2-3.1-4.3-5.6-4.4-2.1,0-3.9,1.6-7.5,7.2-4.1,6.4-5.5,9.9-7.9,14.6-2.1,4.3-11,20.4-31.5,56.4-6.4,11.3-9.8,18.7-16.1,30.8,0,0-.5,1.2-2.6,5.3"/>
      <path class="cls-1" d="M1101.8,1515.8c-12.8,19.3-25.8,38.5-39,57.5-3.2,4.6-6.4,9.1-9.6,13.7-.7.9-1.4,1.9-2,2.8s.2-.2,0,0c-.3.4-.6.8-.9,1.2-1.3,1.7-2.7,3.6-3,5.8-.7,5.5,4,11,9.1,12.6,4.6,1.4,9.4-1.6,12.4-5,8.4-9.6,16.6-19.2,24.6-29.1,11.6-14.4,23-29.1,33.1-44.5,9.2-14,17.3-28.8,25-43.6,6.4-12.3,12.6-24.8,18.1-37.6,7.4-17.3,14.1-35,20.6-52.7s4.3-11.8,6.3-17.8c.7-2.1,1.4-4.3,1.7-6.5.6-4.2-1-8.6-5.3-10.3-4.6-1.8-7.6,2.6-9.9,5.9-4.1,6.1-7,12.8-10.5,19.3-2.7,5-5.4,9.9-8.2,14.9-5.2,9.3-10.4,18.5-15.7,27.8-3.5,6.1-7,12.2-10.3,18.3s-5.6,11-8.5,16.5-4,7.9-6.1,11.9c-.9,1.7,1.7,3.2,2.6,1.5,4.9-9.3,9.4-18.7,14.3-28,6-11.2,12.5-22.2,18.7-33.3,5.8-10.3,11.8-20.5,17.2-31,2.2-4.4,4.2-8.8,6.8-13,1.5-2.4,3-5,5-7.1s.9-.9,1.5-1.1.4,0,.5-.1c.6,0,1.1.1,1.6.4,2.3,1.1,3.4,3.5,3.2,6s0,.6,0,.8c0-.5,0,0,0,0,0,.2,0,.4-.1.6-.6,2.8-1.6,5.6-2.5,8.3-4.1,12.1-8.6,24-13.2,35.9-3.2,8.2-6.4,16.4-9.7,24.6-3.9,9.4-8.1,18.6-12.6,27.8-8,16.4-16.5,32.5-25.9,48.1-9,15.1-19.3,29.3-30.1,43.1-6.5,8.4-13.2,16.6-19.9,24.7-4,4.9-8.2,9.6-12.3,14.4-1.6,1.8-3.1,4-5.3,5.3s-3.6,2.2-5.8,1.7c-4.5-.9-9.4-7-6.8-11.5s2-2.8,3-4.2c2.2-3,4.4-6.1,6.5-9.1,11.1-15.7,21.9-31.6,32.6-47.6,3.8-5.6,7.5-11.2,11.3-16.9,1.1-1.6-1.5-3.1-2.6-1.5h0Z"/>
    </g>
  </g>
  <g id="Laag_7" data-name="Laag 7" class="cls-19">
    <text class="cls-20" transform="translate(485.2 1810.4)"><tspan x="0" y="0">Springtij</tspan></text>
  </g>
  <g id="Laag_8" data-name="Laag 8" class="cls-19">
    <text class="cls-11" transform="translate(1104.2 1885.9)"><tspan x="0" y="0">Lustrum 9</tspan></text>
  </g>
</svg>